<?xml version="1.0" encoding="utf-8"?>
<!-- Generator: Adobe Illustrator 21.0.0, SVG Export Plug-In . SVG Version: 6.00 Build 0)  -->
<svg version="1.1" id="Ebene_1" xmlns="http://www.w3.org/2000/svg" xmlns:xlink="http://www.w3.org/1999/xlink" x="0px" y="0px"
	 viewBox="0 0 595.3 841.9" style="enable-background:new 0 0 595.3 841.9;" xml:space="preserve">
<g>
	<path d="M42.6,437.1c0-1.6,0-3.3,0-4.9c5.5,5.3,11.3,10.3,16.4,16c4,4.4,6,10.6,14.4,7.3c12.2-4.9,24.8-8.5,37-13.3
		c7.8-3.1,11.9-8.6,7.7-17.4c-4.1-8.4-10.7-9.3-18.5-5.8c-9.3,4.1-18.5,8.7-28,12.5c-2.9,1.1-6.6,0.2-9.9,0.2c0-1.1-0.1-2.1-0.1-3.2
		c3.4-2.3,6.9-4.7,12.5-8.5c-7.9,0-13,0-18.2,0c6.2-3.4,12.7-3.7,18.7-5.7c3.2-1,6.9-4.6,7.5-7.7c0.5-2.4-2.9-7.6-5.3-8.1
		c-3.2-0.7-7.1,2-10.7,3.1c-4,1.2-8.1,3.1-12.1,2.9c-3.8-0.2-7.6-2.6-11.4-4.1c0-3.3,0-6.6,0-9.8c12,6.4,23.5,5.6,34.3-2.7
		c5.2,1.2,10.4,2.4,15.6,3.7c-3.4,1.5-6.5,2.8-9.2,4c1.8,6.9,3.4,12.7,5.1,19.3c13.2-5.8,27-13.4,36.4,4c5.3-4,9.5-7.3,13.9-10.4
		c6.1-4.3,13-7.7,18-13c2.3-2.5,0.8-8.5,1.1-12.9c-4.1,0.8-8.8,0.5-12,2.6c-7.8,5.2-14.5,11.9-22.3,17.2c-7.6,5.2-17.5,4.7-18.8-4.6
		c-1.7-12.3-9.7-17.7-17.4-24.5c3.3,0.3,6.5,0.5,9.8,0.8c-0.5-3.7,0.4-9.4-1.7-10.8c-4.5-3.1-10.5-4.2-16-5.3
		c-0.5-0.1-2.2,5.7-3.4,8.7c-8.7-0.4-8.2,5.7-6.4,10.7c1.4,4,5,7.2,7.7,10.8c-11.5-1.4-14-22.2-29.4-12.2c-2.2-6.1-3.8-10.5-5.4-15
		c0-6.6,0-13.1,0-19.7c5.3,0.3,10.7,0.7,16.2,1c0.4-5.2,0.8-11.4,1.2-17.3c-17.8-12.9,3.6-26.2-1.2-40.4c-5.6,5.1-10.8,10-16.1,14.8
		c0-5.7,0-11.5,0-17.2c13-10.4,26.4-20.4,27-39.3c5.7,0,11.5,0,17.2,0c-6,20.2-11.9,40.3-17.9,60.5c0.6,0.3,1.3,0.5,1.9,0.8
		c6.9-10.9,13.8-21.8,21.2-33.5c4.6,3,8.1,5.3,12.2,7.9c-9.1,14.8-17.6,28.6-26.1,42.4c1.2,0,2.4,0,3.6-0.1c1.8,6.6,3.5,13.3,5.3,20
		c-0.6-1.9-1.1-4-1.9-5.8c-4.3-10.3-13.1-5.6-20-5.1c-1.2,0.1-3.2,10.7-2.6,11c5.9,2.5,12.3,4.3,18.6,5c1.8,0.2,4.1-3.6,6.1-5.5
		c-0.7,2.6-1.4,5.1-2.2,8.2c5.2,1.2,9.4,2.1,11.2,2.5c3.4,9,6.2,16.4,9.6,25.5c6.8-8.1,11.8-14.1,17.1-20.4c-4-2.6-7-4.5-10.1-6.4
		c20.7,6,33.8,0.4,45.9-19.4c10.8-17.8,9.2-30.5-5.8-46c1.6-1.2,4.1-2.1,4.6-3.7c2.4-8.2,4.3-16.5,6.5-25.4c-3.3-1.2-7.9-2.8-14-4.9
		c2.3,5.6,3.8,9.3,6.1,15.2c-5.8-0.3-10.7-0.5-16.1-0.8c-2.4,2.9-5.6,6.8-9,10.9c5.3,1.6,9.9,3,14.5,4.4
		c-34.7-3.3-58.8,28.7-44.9,59.6c-17.9-18.6-11.6-41.8,14.2-60.4c-6.2-12.5-12.2-24.5-18.1-36.5c4.1,0,8.2,0,12.3,0
		c2.2,6.1,3.2,13.3,7.1,18c3.1,3.9,10.7,7.6,14.6,6.3c3.9-1.3,6.7-8.7,8.2-13.9c0.9-3-1.8-6.9-2.8-10.4c35.2,0,70.5,0,105.7,0
		c-8.8,5.1-17.5,10.3-27.5,16.1c2.1,7.3,4.8,16.6,7.5,25.9c1.3,0.4,2.7,0.8,4,1.2c4.2-7.4,8.4-14.8,13.1-22.9
		c4.3,1.7,11,4.3,20.1,7.9c0-10.6,0-19.4,0-28.2c4.1,0,8.2,0,12.3,0c0.3,7.7,0,15.6,0.9,23.2c1.8,16.1,4.2,32.1,6.4,48.2
		c1.5-0.1,3-0.1,4.5-0.2c2.4-8.9,4.4-17.9,7.3-26.6c1.1-3.5,3.9-6.6,6.6-9.3c7.3-7.5,14.9-14.6,22.4-21.9c-0.7-0.7-1.3-1.4-2-2.2
		c0.3,5.7,0.5,11.3,0.8,18.4c12.7-7.2,23.4-7.2,33.1,5c0-5,0-10,0-15c6.7,4.2,13.5,8.4,17.5,11c-3.7,19.4-7.1,36.7-10.1,54.1
		c-0.1,0.5,4,1.7,6.1,2.5c-3,2.4-6,4.7-8.5,6.7c9.6,6.5,18.3,12.3,28.6,19.2c-2.1-11.6-3.4-21.2-5.7-30.6c-0.5-2.2-4.2-3.6-6.5-5.3
		c4-2.5,8-5.1,12-7.6c0.2,1.2,0.5,2.4,0.7,3.6c14-2.9,27.9-5.8,43.8-9.1c-14.5-11.5-26.7-8.9-38.8-2.1c2.3-5.1,4.5-10.2,6.8-15.4
		c2.3,1,5.8,2.6,12.1,5.4c-8.5-11.1-16.9-19.4-8.2-33.6c2.5,4.4,5.8,7.5,5.8,10.5c-0.3,12.6,8.5,17.9,17.6,22.5
		c3.2,1.6,8.1-0.3,12.3-0.7c-0.8-4-0.4-8.8-2.5-11.9c-7.3-10.5-15.6-20.3-23.6-30.6c-15.7,6-21.8,4-23.8-8.4c18.8,0,37.7,0,56.5,0
		c9.1,9.5,21.6,16.8,19.9,36.1c6.5-4.6,10.9-6.9,14.2-10.3c7.6-8,12.8-8,19.9,1.1c3.4,4.3,6.7,8.6,10.7,13.8
		c7.8-10.4,14.3-19.1,20.8-27.9c12.3,7.6,23.6,14.6,35,21.6c0,5.7,0,11.5,0,17.2c-9.1-1-18.3,8.5-23,23.6c8.5,3.4,16.8,6.2,23-4
		c0,15.6,0,31.1,0,46.7c-9.1,7.9-18.1,15.8-27.2,23.7c0.5-2.8,1-5.5,1.5-8.3c-4,0.2-7.9,0.4-11.9,0.7c4.9-3,9.5-6.7,14.8-8.9
		c9.5-3.9,13.5-11.7,11.8-20.4c-1-5.1-7-11.8-11.9-12.9c-9.3-2.2-14.9,4.8-17.3,13.5c-1.2,4.6-1.7,9.4-2.8,15.6
		c-3.5-2.4-8.4-4.6-8.1-5.8c2.4-12.3,5.7-24.4,8.6-36.5c-7.3-1-33.7,19.9-37.5,31.9c-5.8-5.7-11.4-11.1-16.9-16.6
		c-0.8,0.5-1.5,1-2.3,1.6c0.5,5.5,1,11,1.5,17.4c-3.9,0.8-7.3,1.5-11.5,2.4c-2.8-13.6-5.4-26.2-7.9-38.5c-18.6,0.9-18.8,1.2-16,16.4
		c0.9,4.8,1.5,9.7,2.8,14.4c2.6,9.1-1.2,11.8-10.6,11c-1.7-8.4-2.9-16.9-5.3-25c-1.2-3.8-5-9.9-7.3-9.8c-5.5,0.4-14.4,3-15.2,6.3
		c-1.3,5.1,2.6,16.6,5.1,16.8c15.2,1.3,14.9,22.8,30.5,22.4c0.3,0,1.3,4.3,1,6.5c-1.4,10.8,5.3,10.8,12.2,8.5
		c5.2-1.7,9.9-5.2,14.7-7.9c-1-4.7-1.8-8.3-3.2-14.5c4.6,4.9,7.2,7.7,10.6,11.3c9.1-9.6,26.1-8.2,28.7-25.7
		c3.9,7,7.4,13.4,11.3,20.4c-7.8-2.2-33.1,8.9-35,15c-0.6,1.9,1.2,4.5,1.9,6.8c-11.9-7.4-22.2,3.9-33.5,1.6
		c5.3,9.2,10.1,17.5,15.5,26.9c5.4-5.8,11-11.8,18.3-19.7c-0.1-1.1-0.3-5.1-0.6-9.1c8.5-4.9,16.2-5.3,26.2-1.5
		c6.2,2.4,17.2,2.3,21.9-7.7c-0.5,13,0.6,14.6,9.5,13.1c0.2,10.7,7.3,7.4,12.5,5.5c3.5-1.2,6.2-4.6,9.3-7.1
		c-6.2,5.4-12.5,10.7-18.6,16.3c-3.2,2.9-7.1,5.7-9.1,9.4c-2.3,4.2-3,9.3-4.3,14c-7.5,27.6-6.6,28.9,22.7,32c0.4,0,0.8-0.2,1.8-0.6
		c2.6-5.1,5.4-10.7,8.7-17.3c-9.2,1.4-16.7,1.5-19.5-6.5c7-2.1,14-2,16.7-5.5c9.5-11.9,9.3-31.3,1.2-41.6c1.1-5.3,2.3-10.5,2.8-13.3
		c2.8,1.7,6.1,3.9,9.5,6c0,43.4,0,86.8,0,130.3c-10.7-2.5-6.6-13.6-10.5-18.7c-9.5,15-24.9,0.1-38.6,8.2c3.6,5,6.6,13.3,10.5,13.7
		c7.1,0.8,14.8-3.1,22.4-5.1c-0.1,0.3,0,4-1.6,4.9c-6,3.6-12.5,6.4-18.8,9.5c11,20.3,12.6,36.3,3,43.4c-14,10.3-22.1-2.3-32.4-10.6
		c-6.2,8.4-12.1,16.5-18,24.6c0.5,1.4,1,2.7,1.4,4.1c8.4-1.3,16.8-2.6,26-4c0.6,4.4,1.6,11.5,2.6,18.7c-7.4-3.2-14.5-7.3-22.2-9.3
		c-5-1.3-13-1.5-15.9,1.4c-6.6,6.7-13.2,14.7-9.5,26c0.9,2.7,0.6,5.8,0.9,8.7c-5.7,0-11.5,0-17.2,0c3.1-2.3,6.3-4.6,9.3-6.8
		c-8.4-16.6-8.3-18-1.8-36.4c0.8-2.4-0.9-5.6-2.1-11.4c-5.2,10.5-8.5,17.4-12.1,24.6c8.5,6.3,5.9,12.7,0.1,19.4
		c-2.5,3-3.8,7-5.7,10.5c-13.9,0-27.9,0-41.8,0c-3.7-11.4-12.8-14.8-23.4-15.2c-10.7-0.4-18.7,3.5-20.8,15.2c-8.2,0-16.4,0-24.6,0
		c8.3-14.5,22-20.7,37.7-25.2c-6.5-1-13.7,2.5-18.6,0.5c-6.5-2.6-11.2-9.5-17.7-15.5c-12.9,6-27.1,12.6-41.5,19.3
		c3.1,8.1,5.6,14.5,8.1,20.9c-5.7,0-11.5,0-17.2,0c-6-12.7-12-25.5-18-38.2c1-0.5,2-1,3.1-1.5c2.4,3.5,4.8,7.1,7.8,11.5
		c3.7-2,6.9-3.7,11.7-6.3c-12.5-8.2-23.3-15.2-34.5-22.6c3.1-4.5,5.6-8,8.3-12c11.9,7.5,22.8,14.3,34.2,21.5
		c-1.7,4-3.1,7.1-4.4,10.3c1.1,0.7,2.2,1.3,3.3,2c3.8-5.8,7.7-11.6,11.9-18c-9-2.1-19.2-4.7-14.2-16.2c3-7,10.8-12,16.5-17.9
		c-0.2-0.6-0.4-1.1-0.6-1.7c-11.8,5-23.7,10.1-35.9,15.2c-5.9-5.3-11.9-10.6-18.7-16.7c-4.9,6.2-8.9,11.2-12.8,16.2
		c0,0,0.3-0.2,0.3-0.2c-7.5,6.6-14.9,13.3-22.8,20.3c4,5.6,7,9.8,11,15.4c7.2-10.4,15.3-12.6,23.7-3.9c2.6,2.7,5.8,7.9,4.8,10.5
		c-2.5,7-7.1,13.3-11.1,20.2c8.3,3.8,17.4,8.1,26.6,12.4c-14.7,0-29.5,0-44.2,0c-4.1-3.8-8.3-7.5-12.9-11.7
		c3.1-3.5,6.4-7.3,9.2-10.6c5,4.3,9,7.6,12.9,11c0.9-0.9,1.8-1.8,2.7-2.7c-8.6-11.7-17.2-23.5-27.2-37.2
		c-4.3,6.8-6.2,12.9-10.3,15.5c-4.8,3.1-11.6,3.1-17.5,4.5c5.3-6.4,10.6-12.7,17.5-21c-14.6,0-26.5,15.9-43.3,52.3
		c-2.5,0-4.9,0-7.4,0c-5.3-23.2-10.6-46.4-15.9-69.7c-1.1,0-2.1-0.1-3.2-0.1c-7,14.9-19.6,27.1-21.3,45.2c9.3-4.9,17.7-7.8,25.6,0.2
		c7.8,7.9,5.3,16.3,0.2,24.4c-22.1,0-44.2,0-66.4,0c0.9-9.7,2.7-19.4,2.3-29.1c-0.1-2.9-9.4-6-9.1-8.2c1.5-10.8-8.3-10-12.9-14.3
		c0-4.1,0-8.2,0-12.3c4.3-2.1,7.9-3.3,6.2-10.4c-2.7-11.6,1.2-21.7,12.8-27.6c1.9-1,4-3,4.5-4.9c4-14.8-2.2-23.9-17.7-26.7
		c-2-0.4-3.9-1.1-5.9-1.7c0-13.9,0-27.9,0-41.8c1.9,8.8,3.7,17.6,6,28.1c3.2,0.7,8.4,1.9,14.8,3.3c0-8.6,0-15.5,0-22.3
		c-1.9,0.8-3.8,1.6-6.8,2.8C61.4,458.1,56,447,42.6,437.1z M492.5,454.4c-3.9-1.1-7.7-2.9-11.7-3.2c-10.7-1-18.5,6.1-18.5,16.4
		c0,10.9,7.2,17.9,17.7,17.2c10.7-0.7,17-8.2,15.6-19.1c-0.5-4-2.3-7.8-3.5-11.6c2.4,1.8,4.8,3.6,8.2,6.2
		c5.6-19.8,11.1-38.8,16.6-58c-3.3-1.8-6.4-3.4-10.3-5.4c0.5,9,4.1,20.1-8.3,21c-7.8,0.6-16-3.8-27.1-6.8c3.1,3.4,3.8,5.1,5,5.5
		C494.8,423.5,495.3,438.3,492.5,454.4z M480,513.3c4.1,6.4,8.9,11.1,16.9,6.4c7.6-4.5,11.2-10.6,5.1-19.7c2.9,1.1,5,1.8,7.8,2.8
		c4.7-19.4,16.8-25.8,36.5-20.9c-14.9-7.7-30.1-11.2-44.7-14.2c-3.4,7.7-10.1,17.4-8.2,19.6c9.5,10.7-2.3,11.1-5.8,15.5
		c-2.7,3.4-4.9,7.2-7.3,10.9c-8.7,2.4-17.3,4.7-22.2,10.5c11.4,5.7,21.5,10.7,30.8,15.3c8.2-5.3,16.8-10.8,26-16.7
		c-1-1.4-2.9-4.3-4.8-7.2C492.7,529.4,485.3,528.7,480,513.3z M209.3,455.1c-5.1,4.9-13.4,7.2-12.2,17.2c0.2,2-4.6,5-7.5,6.8
		c-3.9,2.4-8.2,4-12.4,6c0.4,1.4,0.7,2.9,1.1,4.3c5.8-1.1,14.5-0.3,16.8-3.7C201.2,476.5,204.7,465.5,209.3,455.1
		c14.9-9.6,6.8-23.8,7.2-36.4c-1.1-1.1-2.3-2.3-3.4-3.4c-3.7,3.8-7.3,7.5-11.8,12.1c-11.1-7.1-8.3-21-7.6-34.9
		c-3.1,3.2-4.4,6.6-5.8,9.9c-1.7,4.1-2.3,9.9-5.4,11.9c-9.6,6.3-6.6,13.9-5,23.5c2.4-2.8,3.5-4.4,5-5.7c1.2-1.1,2.7-1.9,1.3-1
		c2.2,7.5,2.6,16.6,7.2,22.3C193.6,456.8,203,454.7,209.3,455.1z M242.7,373.3c-4.2,9.3-3.5,17.6,6.4,22.6
		c8.4,4.2,11.1-3.4,14.8-8.4c-1.6,12.9-9.9,15.4-23.5,11.7c4.2,5.2,6.7,8.3,9.6,11.9c6.4-4.5,12-8.6,17.6-12.6
		c10.8-7.6,10.8-7.6,14.8,2.4c-9.8,7.2-19.6,14.5-29.4,21.8c0.5,0.8,1,1.5,1.4,2.3c11.9-5,23.7-9.9,36.5-15.3
		c-5.1-15.2-0.6-26.6,9.9-37.3c7.9-8,13.6-18.2,20.2-27.4c0.6-0.9,1.4-1.7,2.4-3c3,2.5,5.7,4.7,7,5.8
		c-14.5,18.5-31.6,34.2-37.5,58.5c5.8,0,9.4,0,15.1,0c-2.9,3.8-4.6,6-5.7,7.5c6.7,6.1,12.7,11.7,19.6,18c1.8-4.9,3.5-9.4,5.1-13.8
		c-3.3-1.9-6.1-3.4-9.5-5.4c4.4-11,8.6-21.5,13.1-32.8c4.4,1.6,7.7,2.8,11.5,4.2c-3.7,10.2-7.1,19.5-10.5,28.9
		c1.2,0.6,2.3,1.2,3.5,1.8c9-14.7,18.1-29.3,27.1-44c3.1,1.8,6.1,3.6,9.2,5.5c-3.7,4.6-6.9,8.4-10,12.3c0.5,1.3,1.1,2.5,1.6,3.8
		c8.6-0.8,17.3-1.7,25.9-2.3c11.5-0.9,13.5-7.6,11.9-17.3c-4.4,0-8,0-12.1,0c-1.2-4-2.4-7.7-3.4-11.1c-3.8,0-7.4,0.8-10.5-0.1
		c-9.2-2.8-11.1,2.8-12.2,9.7c-8.3-7.6-16.6-15.3-25.2-23.3c3.3-18,6.7-36.1,9.6-51.9c-10.9,0-20.4,0-31.2,0
		c0,10.3-0.4,22.1,0.1,33.8c0.5,10.9-3.8,13.9-15,9.8c0-12,0-24,0-36c-5.1,9.4-7.1,19.4-10.5,28.8c-1.5,4-6.1,6.9-9.3,10.3
		c-3.1-3.5-7.5-6.5-9-10.5c-3.4-9.3-5.4-19.1-7.9-28.7c-1.1,0.2-2.1,0.3-3.2,0.5c0,12.8,0,25.6,0,38.7c-5.9,0.6-10.3,1-14.8,1.4
		c0-6.4,0-12.8,0-20.3c-21.6,7.2-34-3.5-42.2-21.5c-4.3,5.1-7.7,8.9-10.9,12.8c-1.8,2.3-3.3,4.9-5,7.3c2.5,1.4,4.9,3,7.4,4.2
		c2.2,1,4.5,1.6,6.8,2.4c-14.1,11.9-7.1,25.9-4.3,39.7c0.8,3.8-1,8.1-1.1,12.2c-0.1,2.8,0.8,5.6,1.3,8.7c6-1.7,10.4-3,15.1-4.4
		c-2.4-4.6-4.4-8.4-6.6-12.8c3.5-2.3,6.4-4.2,9.8-6.5c6,8.1,11.6,15.7,16.7,22.5C237,382.5,239.8,377.9,242.7,373.3z M120.3,563.7
		c-4,0.2-7.9,0.5-12.9,0.8c-4.5-11.2-9.6-22.4-13.2-33.9c-2-6.3-1.4-13.4-2.1-22c-1.5-0.3-6.1-1.3-11.7-2.5
		c-0.5,9.6-1,18.1-1.5,27.8c14.9,11.1,9.6,24.9,0.7,38.9c6.2,2.1,11.5,3.9,16.7,5.7c-0.3,1-0.6,2-0.9,3c-11-2.1-21.9-4.2-36.7-7
		C73.2,589.9,77,605,72.3,621.6c7.8,0.7,14.5,1.8,21.3,1.8c2.5,0,5.8-2.3,7-4.5c0.9-1.6-0.2-5.5-1.7-7.2c-2.2-2.5-5.6-4.1-6-4.4
		c9.3-15.1,18.3-29.4,27.1-43.9c5.4-7.5,5.6-14.9-2.7-25.1c-1.6,4.9-4,8.4-3.3,11.1C115.1,554.4,118.1,559,120.3,563.7z
		 M388.1,482.6c-3.2,1.4-5.7,2.4-8.2,3.5c1.6,2.6,4.1,7.7,4.6,7.6c4.8-1.9,11.9-3.6,13.3-7.3c5.4-14.1,8.8-28.9,13-43.4
		c-4.5,3.1-6.2,7.4-8.3,11.5c-4.5,9.1-12,13.2-22,11.8c-12.4-1.7-26.1-18.2-25.9-30.7c0.2-9.7,6.7-16.2,16.6-15.3
		c5.9,0.5,11.7,2.7,19.1,4.5c2.3-9.8,4.6-19.4,6.9-29c-1-1-2-2-3-3c-7.4,4.4-14.7,8.9-22.4,13.6c-3-3.7-7.2-8.9-12.2-15.2
		c-4.8,6.6-8.6,11.8-11.2,15.5c2.8,4.5,4.8,7.7,6.8,10.9c-4.4,0-8.7,0-14.2,0c-4.7,5.4-12.1,11.6,1.3,17.8c-2.4,1.6-6.5,3-6.5,4.4
		c-0.2,11.4,0.1,22.7,0.9,34.1c0.1,1.2,3.9,3.1,5.8,2.9c1.8-0.2,4.3-2.3,5-4.1c1.8-4.8,2.7-9.8,4-14.8c0.6,0.1,1.3,0.2,1.9,0.3
		c0,4,0,8,0,14.3C370.1,461.2,377.1,476.4,388.1,482.6z M393.2,553.9c-7.5,5.2-14.2,9.3-20.1,14.3c-2.5,2.1-3.3,6.2-4.8,9.4
		c3.5-0.4,7.5,0,10.6-1.4c6.2-2.9,12-6.8,19-10.9c1.9,3.5,3.7,6.7,6.1,11.1c4.5-8.2,7.3-13.4,9.4-17.2c9.2,3,17.1,5.6,24.3,8
		c1.6-11.6,3.2-22.5,4.5-32c-7-5.1-14-10.1-21.4-15.5c-2.3,8.7-4.9,18.5-7.6,29c-3.2-10-35.9-19.8-60.1-18.6
		c0.7,7.2,1.3,14.5,2.1,21.7c0.3,2.4,0.2,5.2,1.3,7.2c1.7,3.1,3.7,7,6.5,8.1c5.3,2.1,22-13.3,22.3-19.7c0-0.8,0.7-1.6,1.6-3.5
		C389.1,547.5,390.8,550.2,393.2,553.9z M120.2,536.3c0-0.4-0.2,0.2,0,0.3c1.2,1.1,2.4,2.4,3.8,3c14.1,5.1,18.9,16.3,21.2,30
		c2.4,14.3,6.3,28.4,10.3,45.7c5.9-9.5,9.7-16.2,13.9-22.6c5.3-7.8,7.4-14.9,3.8-25c-2.4-6.5,0.3-15.8,2.9-23
		c2.2-6.2,7.6-11.3,13.1-19c-5.4-1.9-10.6-5.6-13.3-4.2c-3.1,1.6-5.6,7.8-5.2,11.7c0.6,7,0.5,13.6-7.6,13.2
		c-3.3-0.2-6.4-7.3-9.1-11.6c-0.9-1.4-0.3-3.7-0.4-4C142.2,532.7,131.3,534.5,120.2,536.3z M503.3,289.7
		c-3.8-5.2-6.6-10.4-10.7-14.2c-2.7-2.5-7.1-3.1-10.8-4.6c-0.2,4.2-1.5,8.9-0.3,12.6c1.6,4.8,5.3,9,8,13.4c-1.3,0.9-2.6,1.9-3.9,2.8
		c-3.7-4.6-7.3-9.4-11.3-13.7c-1.8-1.9-4.8-4-6.9-3.7c-2.2,0.3-5.9,4.7-5.5,5.2c4.5,7.1,10.1,20,14.3,19.6
		c14.5-1.3,22.7,3.2,26.6,20.6c7-6.7,11.5-10.8,17.2-16.2c1.6,2.7,4.3,7.2,5.5,9.1c7.2-12.6,13.8-24,20.9-36.3
		c-5-3.4-10.3-7-16.3-11.1c-7.1,9.7-13.5,18.7-20.3,27.3c-1.4,1.7-4.4,3.1-6.6,3c-1.9-0.1-3.7-2.6-5.8-4.3
		C499.5,295.9,501.2,293.2,503.3,289.7z M265.6,442.2c-0.4,13.5,10.2,24.3,23.7,24.5c13.4,0.1,24.5-10.7,24.7-23.8
		c0.1-12.6-9.5-23.1-21.8-23.7C277.9,418.4,265.9,428.8,265.6,442.2z M166,334.9c-7.7,8.5-15.1,16.9-22.8,25
		c-1.4,1.5-4.1,2.5-6.2,2.4c-13.6-0.2-18.9,9.7-23.6,19.7c-1.2,2.6-0.6,8.1,1.3,9.8c1.8,1.6,7.2,1,9.7-0.7
		c7.1-4.8,13.1-11.1,20.2-15.8c4.5-3,11-6.6,15.4-5.5c8.7,2.3,16.6,7.7,28.4,13.7C181.7,364.5,186.4,345,166,334.9z M416.6,472.8
		c13.6,0,27.6,0,41.9,0c0.6-5,1.5-11.7,2.5-19.4c-6,0-11.2,0-16.4,0c-0.1-0.9-0.2-1.7-0.3-2.6c10.3-1.6,20.6-3.3,32.4-5.1
		c-9.2-6.7-16.6-12.1-24.7-18c-5.4,11.9-14.7,17.7-27.4,19.6c-3.5,0.5-7.8,4.8-9.1,8.3c-3.1,8.2-4.7,17-6.9,25.6
		c1.1,0.4,2.2,0.9,3.3,1.3C413.6,479.2,415.2,475.8,416.6,472.8z M258.5,431c-9.4,3.5-22.7,4.9-30.5,12.2
		c-8.5,7.8-11.8,21.2-17.4,32.1c0.9,0.8,1.8,1.5,2.7,2.3c8.2-4.2,20.9,1.2,26.3-12.1c16.8,7,16.8,7,25.2,0.6
		C262.6,454.2,260.7,443.4,258.5,431z M366.7,609.1c21.8,21.2,40.9,13.1,58.4-2.3c-7.5-5.3-14.9-10.6-22.7-16.2
		c-2.9,4.2-6.2,9-9.5,13.7c-0.8-0.4-1.7-0.9-2.5-1.3c3.5-7.2,7-14.4,10.5-21.6C386.7,588.9,368.6,590.9,366.7,609.1z M324,438
		c-2.3,16.9-10.3,29-24.6,34.4c5.5,9.4,10.1,17.4,14.9,25.6c0.8-1.4,1.8-3.2,2.7-4.8c4.6,12.3,14.8,9.9,24.9,11
		c1.3-7.9,2.5-14.9,3.9-23c-9,0-16.6,0-23.3,0C332.8,467.4,326.3,452.9,324,438z M122.1,516.3c-2.5,13,4.3,14,13.2,12.6
		c13.8-2.2,22.2-12.1,19.4-23c-3.1-12.1-14.8-17.2-28.3-12.4c-12.9,4.6-16.7,13.7-10.9,26.5C117.3,519,119.1,518,122.1,516.3z
		 M224.9,480.5c3.9,12.1,7.8,24.2,11.6,36c-0.6,0.1-2.5,0.3-6.2,0.9c4.2,3.3,6.9,5.4,8,6.3c4.3-6.4,6.9-14.2,12.1-17
		c5.3-2.8,13.3-0.6,19.8-0.6C260.9,474.6,263.6,470,224.9,480.5z M298.1,519.6c3.5,9.4,6.8,18.3,10.2,27.3c1,2.7,4.2,4.4,7.5,6
		c0.3,0.1,0.7,0,1.1,0c0.7-19.5,0.7-19.5,8.7-19.7c0.8,6.3,0.7,13,2.7,19.1c1.4,4.3,5.4,7.7,8.3,11.5c2.8-4.2,7.6-8.3,7.9-12.7
		c0.6-8.2-1.4-16.7-2.3-25.5c-10.7-1.8-20.9-3.6-31.1-5.4c-0.2-2.3-0.5-4.7-0.7-7.7C305.9,515,302.4,517,298.1,519.6z M492.8,493.1
		c-0.7-1.8-1.4-3.5-2.1-5.3c-9.1,7.3-19.9-6.3-28.7,4.9c-2.3-2-6.8-4.2-6.6-5.9c1.2-12.2-5.4-12.3-13.6-9.1c-5.1,2-9.6,5.4-15.3,8.8
		c3.3,4.4,5.8,10.2,8,10.2c14.5-0.5,23.1,7.6,29.6,20.7C474.6,508.4,483.7,500.8,492.8,493.1z M191.7,495
		c-3.6,6.5,5.7,20.3,23.4,33.9c2.5,1.9,7.2,0.9,11.4,1.3c-3.8-10.5-6.4-17.9-8.4-23.6c2.2-2.6,4.8-4.3,4.7-5.8
		c-0.5-4.8-1.7-9.7-3.1-14.3c-2.7-8.5-9-7.2-12.8-2.3c-2.9,3.7-2.4,10-3.5,15.4C200.6,498.6,196.1,496.7,191.7,495z M328.4,578
		c3.6,5.3,6.6,10.6,10.5,15.2c1.4,1.6,4.8,2.1,7.3,2c1.4-0.1,3.8-2.8,3.6-4c-2.7-15.1,2.5-13.6,11.4-5.8c0.6,0.5,2.8-0.8,4.2-1.2
		c-4.9-14.7-14-21.8-22.7-16.3c-10,6.2-17.3,4.5-25.4-5.3c-0.7,10.9-18.2,10.7-12.9,25.4C313.2,584.3,320.6,581.2,328.4,578z
		 M424.9,566.8c-9.4-0.2-16.7,7.4-16.7,17.3c0,9,8,16.7,17.5,16.9c8.4,0.1,17.3-8.8,17.2-17.5C442.9,574.9,434.3,567,424.9,566.8z
		 M67.6,537.5c-9.9-0.5-16.3,5.8-16.6,16.3c-0.3,9.2,6.3,16.3,15.7,16.8c10.2,0.6,17.8-6.7,18-17.2C84.8,543.3,79.3,538,67.6,537.5z
		 M370.7,511.5c1.7-8.9,3.1-16.1,4.5-23.2c1.3-7,1-13.7-7.3-15.8c-8.5-2.2-14.5,2.3-17.1,10.1c-2.4,7.2-3.3,14.9-5.1,23.4
		C354.3,507.9,361.7,509.5,370.7,511.5z M247,320.9c0-5.2-0.2-9.2,0-13.1c0.8-11.8-5.4-25.9,14.4-33.2c-14.1-3.4-20.4,3.9-26.6,9.2
		c-4.3,3.7-9.8,10.2-9.1,14.5C227.5,308.2,230.7,319.3,247,320.9z M193.4,257.8c-14.3,3.7-19.1,13.2-14.9,26.4
		c3.7,11.7,12,15.7,26.1,11.1C200.9,282.8,197.1,270.3,193.4,257.8z M461.1,581.1c8-10.8,15.9-21.6,24-32.5
		c-12.5-8.2-22.9-5.7-30.7,5.6C447.6,563.9,449.2,571.9,461.1,581.1z M437.1,409.9c-4.9-5-9.5-9.9-14.2-14.7
		c-3.1,4.3-6.8,8.4-9.1,13.1c-1.9,3.9-2.6,8.7-2.8,13.1c-0.2,4.3,0.7,8.8,1.2,13.1c5.4-1.9,12-2.6,15.8-6.2
		C432,424.5,433.4,417.9,437.1,409.9z M429.5,499.9c-2.2-3.6-4.5-7.3-7.2-11.8c-8.8,5-16.9,9.4-24.8,14.2c-8.1,5-4.2,10.7,0.8,14.2
		c9,6.2,17.9,3.1,23.5-6.4C423.8,506.6,426.6,503.7,429.5,499.9z M500.1,326.1c-0.2-1.8-0.3-3.6-0.5-5.4c-4.5-2.9-8.8-7.6-13.6-8.4
		c-8.3-1.4-20.2,10.3-17.8,17.4c1.6,4.6,9.6,11.5,11.9,10.6C487.5,337.3,493.6,331,500.1,326.1z M460.1,282.1
		c-2.7-4.8-4.5-8.8-7-12.2c-4.7-6.6-9.4-13.5-15.2-19.1c-1.8-1.7-7.2,0.2-11,0.5c0.4,3.4-0.2,7.5,1.5,10
		c4.6,6.7,10.9,12.3,15.3,19.1C448.8,287.8,453.5,287.2,460.1,282.1z M113.8,491.7c8.9-2.2,19.1-4.8,30.6-7.6
		c-8.3-7.3-16.3-14.3-23.9-21c-4.1,3.5-7.9,5.6-10,8.7c-1.7,2.6-2.2,6.6-1.6,9.8C109.6,485,112,488.2,113.8,491.7z M103.6,495.5
		c0.4-0.9,0.9-1.8,1.3-2.7c-1.5-1.1-2.9-2.2-4.4-3.2c-4.4-3-8.8-6-13.1-9c2.9-3.9,6.1-7.6,8.6-11.7c1.9-3.2,2.9-7,5-12.1
		c-28.6,10.1-25.8,9.2-22.6,27.7C80.6,498.1,95.1,491.4,103.6,495.5z M181.2,458.9c0.7-1.1,1.5-2.2,2.2-3.2
		c-4.1-3.1-8.1-6.1-13.3-10.1c-0.3-4.4-0.2-10.6-1.4-16.5c-0.5-2.4-3.9-6-5.9-5.9c-2.3,0.1-6.2,3.3-6.5,5.6
		c-1.2,9.3-3.8,19.6,9.2,23.8C170.8,454.3,176,456.7,181.2,458.9z M305.7,499.9c-7.1-6.5-12-10.9-16.9-15.4
		c-3.3,3.9-9.1,7.7-9.2,11.6c-0.2,7.3,3.5,15.2,12.7,14.6C296,510.6,299.4,505.3,305.7,499.9z M392.6,439c-5.7-4.6-9.9-8.8-10.4-8.4
		c-5.9,4.7-11.7,9.7-16.2,15.7c-0.7,0.9,4.9,6.7,7.5,10.2C379.2,451.3,384.8,446.2,392.6,439z M501.5,556.7
		c10.6,8.1,20.9,7.5,25.9-1c1.8-3,1.8-9.4-0.3-11.8c-2-2.3-8.8-3.1-11.5-1.4C510.4,545.8,506.6,551.4,501.5,556.7z M224.3,399.3
		c-1.4,0.5-2.8,1-4.2,1.4c1.9,9.4,3.9,18.7,6.1,29.5c5,0,11.1,0,20.3,0C237.6,418,230.9,408.6,224.3,399.3z M257.1,504.7
		c-4.7,7.1-10.2,11.7-9.6,15.3c0.6,4,6.8,9.8,10.6,9.8c3.5,0,9.7-6.4,9.9-10.2C268.2,515.7,262.4,511.6,257.1,504.7z M332.3,267.5
		c-5.2,7.5-10.3,11.7-10.3,15.8c0,3.4,6.5,10,9.2,9.5c4.3-0.7,10.1-5.7,10.8-9.7C342.7,279.6,337.3,275,332.3,267.5z M171.8,470.9
		c-4.3-3.3-8.7-5.3-10.8-8.7c-5.5-8.6-9.5-5.7-12.3,1.2c-1.6,4-0.7,8.9-1,13.4c4.4-0.1,9.1,0.5,13.3-0.5
		C164.8,475.5,168,472.9,171.8,470.9z M115.6,633.5c5.4-5.6,10.6-8.9,11.7-13.2c0.6-2.3-6.1-6.4-9.5-9.7c-3.9,4.1-8.2,7.9-11.1,12.6
		C106,624.2,111.2,628.6,115.6,633.5z M152.3,437.1c-4.3-5.9-7.3-10.1-10.4-14.3c-2.2,4.5-5.9,8.8-6.3,13.5
		c-0.5,4.9-3.5,14.1,6.7,12.8C145.6,448.8,148.2,442.3,152.3,437.1z M236.2,616.5c3.6-7.2,8.1-12.1,7-14.8
		c-1.7-4.3-6.8-7.8-11.2-10.3c-0.8-0.5-7.9,6.2-7.3,7.9C226.6,604.5,230.8,608.8,236.2,616.5z M518.1,493.3c0.5,1.8,1.1,3.7,1.6,5.5
		c8,0.7,16,1.5,24,2.2c0.8-1.5,1.5-3,2.3-4.5c-4.1-3.4-8-9.1-12.3-9.5C528.7,486.7,523.3,491,518.1,493.3z M156.8,494.2
		c2,8.9,3.4,15.3,4.9,22.1c6.3-4.4,11.8-8.2,18.9-13.3C172.4,500,165.5,497.4,156.8,494.2z M453.9,512.5c-5.1-3.6-9.5-7.4-10-6.9
		c-4,3.7-7.7,7.9-10.5,12.6c-0.5,0.8,5.6,6.8,6,6.5C443.9,521.6,447.9,517.7,453.9,512.5z M169.2,298.3c0,11.7,0,22.2,0,32.8
		c0.8,0.2,1.7,0.4,2.5,0.6c3.1-9,6.2-18,9.7-27.9C178.3,302.4,173.8,300.4,169.2,298.3z M192.5,534.8c-1.5,7.5-2.7,13.5-3.9,19.4
		c3.5-0.4,8.3,0.5,10.2-1.4C204.5,547.2,203.7,541.3,192.5,534.8z M105.9,508.1c-1.3,0.2-2.5,0.4-3.8,0.6
		c-5.2,11.4,5.9,19.8,7.1,30.1c1.7-0.4,3.4-0.8,5.1-1.2C111.6,527.8,108.7,517.9,105.9,508.1z M393.8,516
		c-5.6-9.3-9.1-15.2-14.6-24.3c-1.8,8.9-2.8,14.1-4.1,20.4C380.8,513.3,385.3,514.2,393.8,516z M293.7,531.1
		c-1.2-1.9-2.4-3.9-3.5-5.8c-5.8,3.6-11.5,7.2-17.3,10.8c1,1.7,2,3.4,3,5C281.9,537.7,287.8,534.4,293.7,531.1z M163,403.5
		c-5.4,4.6-9.9,8.5-14.4,12.3c0.2,1,0.5,2.1,0.7,3.1c5.4-0.5,10.7-1,17-1.5C164.9,411.3,164,407.5,163,403.5z M498.6,397.4
		c-1.3-0.9-2.6-1.9-4-2.8c-7.8,2.6-11.3,7.7-10.9,15.2c1.4,0.9,2.9,1.8,4.3,2.8C491.6,407.5,495.1,402.5,498.6,397.4z M477.3,440
		c1.1-2,2.1-3.9,3.2-5.9c-5.8-3.3-11.6-6.6-17.4-9.9c-1,1.8-2.1,3.6-3.1,5.4C465.8,433.1,471.5,436.5,477.3,440z M199.2,399
		c-0.6,2.2-1.2,4.5-1.9,6.7c5.9,1.6,11.8,3.1,17.8,4.7c0.6-1.9,1.1-3.9,1.7-5.8C210.9,402.7,205.1,400.9,199.2,399z M301.6,573.6
		c1.8-1,3.6-2.1,5.4-3.1c-3.1-5.4-6.2-10.8-9.2-16.2c-1.8,1-3.7,2.1-5.5,3.1C295.4,562.8,298.5,568.2,301.6,573.6z"/>
	<path d="M563.7,587.1c-17,12.5-34,25-51.5,37.9c-2.2-2.7-4.9-6.2-7.5-9.5c1.7-3.3,3.3-6.2,4.8-9c3.9-1.4,8.4-2.1,11.7-4.5
		c14.4-10.5,28.4-21.4,42.6-32.2C563.7,575.6,563.7,581.3,563.7,587.1z"/>
	<path d="M351.2,262.8c-8.6-6.6-17.3-13.2-25.9-19.8c6.6,0,13.1,0,19.7,0c6.4,3.1,12.9,6.1,20.9,10
		C368.5,263.5,354.7,257.3,351.2,262.8z"/>
	<path d="M47.5,242.9c3.1,2.2,6.3,4.5,10.7,7.6c-4.8,7.6-10.2,16-15.6,24.4c0-9.4-0.2-18.9,0.2-28.3
		C42.9,245.3,45.9,244.2,47.5,242.9z"/>
	<path d="M563.7,557.6c-6.9-2.1-13.8-4.1-20.8-6.2c-0.2-1-0.4-2.1-0.7-3.1c7.1-1,14.3-2,21.4-3C563.7,549.4,563.7,553.5,563.7,557.6
		z"/>
	<path d="M563.7,265.1c-6.6-5.9-13.2-11.8-19.8-17.7c-0.4,1.2-0.8,2.4-1.2,3.7c5.4-2.7,10.8-5.4,16.1-8.1c1.6,1.1,4.6,2.1,4.7,3.3
		C564,252.5,563.7,258.8,563.7,265.1z"/>
	<path d="M231.2,559.1c5.9-3.6,11.4-4,12.5,4.2c0.3,2.3-4.5,5.2-7,7.9c-1.8-4.1-3.5-8.2-5.2-12.3
		C231.5,558.9,231.2,559.1,231.2,559.1z"/>
	<path d="M263.7,388.1c-3.7-9.5-8.9-17-20.9-14.8c2.2-1,4.3-2.1,7.9-3.8c-3.1-3.6-5.8-6.6-8.1-9.2c-2.2,0.8-3.1,1-3.7,1.4
		c-3.5,2.8-6.9,5.6-10.3,8.4c-0.9-1.2-2.6-3.5-2.5-3.5c3.6-2.9,7.2-5.6,11-8.2c1.2-0.8,2.8-0.9,7.9-2.6c-16-10-29.5-18.4-42.9-26.7
		c2-2.5,4.1-5,6.3-7.8c8.9,6.3,17.3,12.7,26.2,18.3c3.5,2.2,8.1,2.7,12.2,4c-0.8,10.9,0,21.3,13.3,24c4.7,1,10.5,0.9,14.8-1
		c4.7-2,7.9-6.9,12.3-9.9c8.3-5.7,13.4-3.2,15.3,6c-19.3-11-23.1,15.1-38,13.8c2.4,4.9,4.1,8.3,5.7,11.6
		C268,388.1,265.9,388.1,263.7,388.1z"/>
</g>
</svg>
